<svg viewBox="0 0 24 24" fill="none" xmlns="http://www.w3.org/2000/svg">
  <circle cx="12" cy="12" r="10" fill="#10B981" />
  <path d="M7.5 12.5c0-2 1.5-3.5 3.5-3.5h.5c2 0 3.5 1.5 3.5 3.5v1.25c0 .83-.67 1.5-1.5 1.5H9c-.83 0-1.5-.67-1.5-1.5V12.5Z" stroke="white" stroke-width="1.8" stroke-linecap="round" stroke-linejoin="round" />
  <path d="M12 7.5v2.5M10 9.5h4M8.5 12.5c.5-.5 1.25-1 2-1 1 0 1.75.5 2 1M15.5 12.5c-.5-.5-1.25-1-2-1-1 0-1.75.5-2 1M7.5 14.5c.5.5 1.25 1 2 1 1 0 1.75-.5 2-1M15.5 14.5c-.5.5-1.25 1-2 1-1 0-1.75-.5-2-1" stroke="white" stroke-width="1.8" stroke-linecap="round" stroke-linejoin="round" />
  <path d="M8.5 10.5c-.5-1-1.75-1.25-2.5-.5-.75.75-.75 2 0 2.75.75.75 1.75.5 2.5-.5M15.5 10.5c.5-1 1.75-1.25 2.5-.5.75.75.75 2 0 2.75-.75.75-1.75.5-2.5-.5" stroke="white" stroke-width="1.8" stroke-linecap="round" stroke-linejoin="round" />
</svg>
